HIERARCHY
ROOT hip
{
	OFFSET 0.000000 0.000000 0.000000 
	CHANNELS 6 Xposition Yposition Zposition Xrotation Zrotation Yrotation
	JOINT abdomen
	{
		OFFSET 0.000000 3.402643 0.000000 
		CHANNELS 3 Xrotation Zrotation Yrotation
		JOINT chest
		{
			OFFSET 0.000000 8.438565 -0.680529 
			CHANNELS 3 Xrotation Zrotation Yrotation
			JOINT neck
			{
				OFFSET 0.000000 10.207942 -0.272212 
				CHANNELS 3 Xrotation Zrotation Yrotation
				JOINT head
				{
					OFFSET 0.000000 3.130431 0.000000 
					CHANNELS 3 Xrotation Zrotation Yrotation
					End Site
					{
						OFFSET 0.000000 3.130435 0.000000 
					}
				}
			}
			JOINT lCollar
			{
				OFFSET 3.470700 6.669187 -0.816635 
				CHANNELS 3 Yrotation Zrotation Xrotation
				JOINT lShldr
				{
					OFFSET 3.198488 0.000000 0.000000 
					CHANNELS 3 Zrotation Yrotation Xrotation
					JOINT lForeArm
					{
						OFFSET 10.139888 0.000000 0.000000 
						CHANNELS 3 Yrotation Zrotation Xrotation
						JOINT lHand
						{
							OFFSET 8.370511 0.000000 0.000000 
							CHANNELS 3 Zrotation Yrotation Xrotation
							End Site
							{
								OFFSET 4.083176 0.000000 0.000000 
							}
						}
					}
				}
			}
			JOINT rCollar
			{
				OFFSET -3.470700 6.669187 -0.816635 
				CHANNELS 3 Yrotation Zrotation Xrotation
				JOINT rShldr
				{
					OFFSET -3.198488 0.000000 0.000000 
					CHANNELS 3 Zrotation Yrotation Xrotation
					JOINT rForeArm
					{
						OFFSET -10.139888 0.000000 0.000000 
						CHANNELS 3 Yrotation Zrotation Xrotation
						JOINT rHand
						{
							OFFSET -8.370511 0.000000 0.000000 
							CHANNELS 3 Zrotation Yrotation Xrotation
							End Site
							{
								OFFSET -4.083176 0.000000 0.000000 
							}
						}
					}
				}
			}
		}
	}
	JOINT lThigh
	{
		OFFSET 5.308129 -1.633274 1.361059 
		CHANNELS 3 Xrotation Zrotation Yrotation
		JOINT lShin
		{
			OFFSET -2.041588 -20.007561 0.000000 
			CHANNELS 3 Xrotation Zrotation Yrotation
			JOINT lFoot
			{
				OFFSET 0.000000 -19.190928 -1.224953 
				CHANNELS 3 Xrotation Yrotation Zrotation
				End Site
				{
					OFFSET 0.000000 -2.449906 4.627600 
				}
			}
		}
	}
	JOINT rThigh
	{
		OFFSET -5.308129 -1.633274 1.361059 
		CHANNELS 3 Xrotation Zrotation Yrotation
		JOINT rShin
		{
			OFFSET 2.041588 -20.007561 0.000000 
			CHANNELS 3 Xrotation Zrotation Yrotation
			JOINT rFoot
			{
				OFFSET 0.000000 -19.190928 -1.224953 
				CHANNELS 3 Xrotation Yrotation Zrotation
				End Site
				{
					OFFSET 0.000000 -2.449906 4.627600 
				}
			}
		}
	}
}
MOTION
Frames: 16
Frame Time: 0.033333
-0.399113 42.241364 -5.004575 19.960938 0.000000 -0.019531 16.191408 0.000000 -0.009766 -0.078122 -0.019531 -0.009769 -8.544920 -0.009766 -0.009767 -3.281250 -0.009766 0.000000 1.992188 -2.001953 0.000341 -87.198502 -51.315239 39.769146 -53.859467 -0.564317 8.614400 -20.995304 15.827587 -16.150560 -2.001953 1.992188 0.000000 56.853058 61.579613 18.961494 40.847023 0.599978 8.473203 16.197897 -16.472458 -16.707876 -45.828770 3.993880 0.335588 41.334969 -0.666478 -3.114090 -15.562132 0.678461 -2.043270 -45.821362 -4.130123 -0.382717 41.347065 0.618467 3.049099 -15.562119 -0.690283 2.047821 
-0.399113 41.354828 -5.004575 19.960938 0.000000 -0.019531 16.191408 0.000000 -0.009766 -0.078122 -0.019531 -0.009769 -8.544920 -0.009766 -0.009767 -4.082031 -0.009766 0.000000 1.992188 -2.001953 0.000341 -87.074005 -53.246723 39.619347 -53.859467 -0.564317 8.614400 -20.995304 15.827587 -16.150560 -2.001953 1.992188 0.000000 54.778748 63.182991 16.632771 40.847023 0.599978 8.473203 16.197897 -16.472458 -16.707876 -48.870365 3.993197 0.331719 46.477539 -0.393809 -3.328299 -17.672009 0.739492 -2.021632 -48.881977 -4.130333 -0.394676 46.508121 0.344528 3.280632 -17.671865 -0.757573 2.033525 
-0.399113 39.837227 -5.004575 19.960938 0.000000 -0.019531 17.451172 0.000000 -0.009766 1.474613 -0.019531 -0.009769 -8.544920 -0.009766 -0.009767 -5.263672 -0.009766 0.000000 1.992188 -2.001953 0.000341 -86.863068 -56.064735 39.347904 -53.859467 -0.564317 8.614400 -20.995304 15.827587 -16.150560 -2.001953 1.992188 0.000000 51.270588 65.436432 12.738482 40.847023 0.599978 8.473203 16.197897 -16.472458 -16.707876 -53.066555 4.002912 0.330471 53.673870 0.005388 -3.636955 -20.690092 0.879759 -1.960195 -53.070141 -4.130504 -0.391077 53.684952 -0.066365 3.569370 -20.699446 -0.870896 1.999220 
-0.399113 38.319717 -5.004575 19.960938 0.000000 -0.019531 18.710938 0.000000 -0.009766 3.027347 -0.019531 -0.009769 -8.544920 -0.009766 -0.009767 -6.435547 -0.009766 0.000000 1.992188 -2.001953 0.000341 -86.625305 -58.875973 39.054264 -53.859467 -0.564317 8.614400 -20.995304 15.827587 -16.150560 -2.001953 1.992188 0.000000 47.005886 67.579941 8.087057 40.847023 0.599978 8.473203 16.197897 -16.472458 -16.707876 -57.262520 4.003290 0.321022 60.877594 0.453927 -3.866756 -23.707886 0.946616 -1.913356 -57.255939 -4.130177 -0.394077 60.877563 -0.516290 3.822046 -23.707291 -0.985647 1.945149 
-0.396608 36.889664 -5.002069 19.960938 0.000000 -0.019531 20.253904 0.000000 -0.009766 4.921878 -0.019531 -0.009769 -8.544920 -0.009766 -0.009767 -7.871094 -0.009766 0.000000 1.992188 -2.001953 0.000341 -86.229645 -62.312943 38.600262 -53.859467 -0.564317 8.614400 -20.995304 15.827587 -16.150560 -2.001953 1.992188 0.000000 40.655167 69.950981 1.279224 40.847023 0.599978 8.473203 16.197897 -16.472458 -16.707876 -60.515785 4.003326 0.321581 66.461227 0.823957 -4.015791 -26.070770 1.062687 -1.876251 -60.530174 -4.130545 -0.381276 66.451317 -0.887681 3.965696 -26.051161 -1.052662 1.894403 
-0.394104 35.459686 -4.999566 19.960938 0.000000 -0.019531 21.796875 0.000000 -0.009766 6.806644 -0.019531 -0.009769 -8.544920 -0.009766 -0.009767 -9.306641 -0.009766 0.000000 1.992188 -2.001953 0.000341 -85.736702 -65.732292 38.056179 -53.859467 -0.564317 8.614400 -20.995304 15.827587 -16.150560 -2.001953 1.992188 0.000000 32.669838 72.006760 -7.157931 40.847023 0.599978 8.473203 16.197897 -16.472458 -16.707876 -63.778824 3.994103 0.323275 72.044472 1.213451 -4.115060 -28.404526 1.134880 -1.851978 -63.792820 -4.130546 -0.382544 72.034508 -1.278490 4.059594 -28.404564 -1.123682 1.859838 
-0.394104 34.250153 -4.999566 19.960938 0.000000 -0.019531 23.515625 0.000000 -0.009766 8.916018 -0.019531 -0.009769 -8.544920 -0.009766 -0.009767 -10.908203 -0.009766 0.000000 1.992188 -2.001953 0.000341 -84.964355 -69.544464 37.235035 -53.859467 -0.564317 8.614400 -20.995304 15.827587 -16.150560 -2.001953 1.992188 0.000000 21.584852 73.760979 -18.750832 40.847023 0.599978 8.473203 16.197897 -16.472458 -16.707876 -66.207207 4.003633 0.325293 76.194725 1.505709 -4.182595 -30.142614 1.203153 -1.818093 -66.212303 -4.130282 -0.385729 76.194893 -1.571719 4.113594 -30.123264 -1.181624 1.822144 
-0.394104 33.040657 -4.999566 19.960938 0.000000 -0.019531 25.244141 0.000000 -0.009766 11.025393 -0.019531 -0.009769 -8.544920 -0.009766 -0.009767 -12.519532 -0.009766 0.000000 1.992188 -2.001953 0.000341 -83.853218 -73.354897 36.071201 -53.859467 -0.564317 8.614400 -20.995304 15.827587 -16.150560 -2.001953 1.992188 0.000000 8.431766 74.759224 -32.412205 40.847023 0.599978 8.473203 16.197897 -16.472458 -16.707876 -68.645927 4.003451 0.327052 80.355942 1.798138 -4.206456 -31.871452 1.223516 -1.781821 -68.631950 -4.130760 -0.382732 80.345695 -1.864840 4.151862 -31.841885 -1.240275 1.792957 
-0.394104 32.189171 -4.999566 19.960938 0.000000 -0.019531 26.845703 0.000000 -0.009766 12.900393 -0.019531 -0.009769 -8.544920 -0.009766 -0.009767 -13.984375 -0.009766 0.000000 1.992188 -2.001953 0.000341 -82.246597 -76.801880 34.406540 -53.859467 -0.564317 8.614400 -20.995304 15.827587 -16.150560 -2.001953 1.992188 0.000000 -4.431378 74.875168 -45.732658 40.847023 0.599978 8.473203 16.197897 -16.472458 -16.707876 -70.328796 4.003407 0.349108 83.015701 2.002993 -4.217891 -32.877346 1.258503 -1.749431 -70.316574 -4.130584 -0.383043 83.025101 -2.060338 4.169343 -32.867424 -1.272479 1.750667 
-0.394104 31.337803 -4.999566 19.960938 0.000000 -0.019531 28.437502 0.000000 -0.009766 14.765628 -0.019531 -0.009769 -8.544920 -0.009766 -0.009767 -15.449219 -0.009766 0.000000 1.992188 -2.001953 0.000341 -79.486755 -80.240700 31.589542 -53.859467 -0.564317 8.614400 -20.995304 15.827587 -16.150560 -2.001953 1.992188 0.000000 -16.791313 74.232849 -58.554993 40.847023 0.599978 8.473203 16.197897 -16.472458 -16.707876 -71.994324 3.993486 0.349791 85.686081 2.197458 -4.215824 -33.863609 1.296443 -1.725644 -71.991188 -4.130630 -0.384853 85.686562 -2.245669 4.153620 -33.882935 -1.303217 1.743924 
-0.394104 31.663345 -4.999566 19.960938 0.000000 -0.019531 27.226561 0.000000 -0.009766 12.343754 -0.019531 -0.009769 -8.544920 -0.009766 -0.009767 -9.912109 -0.009766 0.000000 1.992188 -2.001953 0.000341 -84.115623 -72.515404 36.339657 -53.859467 -0.564317 8.614400 -20.995304 15.827587 -16.150560 -2.001953 1.992188 0.000000 11.455939 74.607445 -29.271366 40.847023 0.599978 8.473203 16.197897 -16.472458 -16.707876 -71.543991 4.003331 0.338146 85.686081 2.197458 -4.215823 -34.322594 1.299701 -1.731735 -71.550781 -4.130857 -0.380615 85.686966 -2.235965 4.152730 -34.322689 -1.297088 1.721990 
-0.394104 31.988934 -4.999566 19.960938 0.000000 -0.019531 26.015625 0.000000 -0.009766 9.912113 -0.019531 -0.009769 -8.544920 -0.009766 -0.009767 -4.365234 -0.009766 0.000000 1.992188 -2.001953 0.000341 -85.875961 -64.755272 38.230083 -53.859467 -0.564317 8.614400 -20.995304 15.827587 -16.150560 -2.001953 1.992188 0.000000 35.125988 71.461975 -4.576268 40.847023 0.599978 8.473203 16.197897 -16.472458 -16.707876 -71.093193 4.003016 0.343158 85.666969 2.187048 -4.214911 -34.762070 1.315057 -1.716636 -71.099899 -4.130494 -0.385707 85.686562 -2.245672 4.153620 -34.762043 -1.319875 1.712872 
-0.394104 32.705151 -4.999566 19.960938 0.000000 -0.019531 16.943357 0.000000 -0.009766 2.666019 -0.019531 -0.009769 -8.544920 -0.009766 -0.009767 6.865237 -0.009766 -0.009767 1.992188 -2.001953 0.000341 -87.401855 -47.637985 40.040169 -53.859467 -0.564317 8.614400 -20.995304 15.827587 -16.150560 -2.001953 1.992188 0.000000 60.220276 58.430649 22.838633 40.847023 0.599978 8.473203 16.197897 -16.472458 -16.707876 -70.123962 4.003477 0.338279 85.646683 2.197464 -4.224080 -35.699627 1.348349 -1.683196 -70.120720 -4.130598 -0.382440 85.647919 -2.235978 4.151443 -35.699337 -1.356515 1.712276 
-0.394104 33.421329 -4.999566 19.960938 0.000000 -0.019531 7.861328 0.000000 -0.009766 -4.580075 -0.019531 -0.009769 -8.544920 -0.009766 -0.009767 18.095701 0.000000 -0.009766 1.992188 -2.001953 0.000341 -87.976555 -30.516243 40.935452 -53.859467 -0.564317 8.614400 -20.995304 15.827587 -16.150560 -2.001953 1.992188 0.000000 69.220596 42.871399 34.334881 40.847023 0.599978 8.473203 16.197897 -16.472458 -16.707876 -69.135147 4.003076 0.333821 85.596802 2.197235 -4.251357 -36.627483 1.383783 -1.635199 -69.133156 -4.130695 -0.360523 85.600700 -2.206894 4.137546 -36.636902 -1.372801 1.703673 
-0.394104 33.877136 -4.999566 19.960938 0.000000 -0.019531 1.230470 -0.009766 -0.009767 -11.289059 -0.019531 -0.009769 -8.544920 -0.009766 -0.009767 26.298828 0.000000 -0.009766 1.992188 -2.001953 0.000341 -88.428993 -19.228203 40.406933 -53.950428 -0.562286 8.613914 -21.094973 16.400129 -15.102238 -2.001953 1.992188 0.000000 72.335297 31.018972 39.479965 40.847023 0.599978 8.473203 16.197897 -16.472458 -16.707876 -68.449402 4.002866 0.336052 85.539001 2.187592 -4.238882 -37.252361 1.407743 -1.634166 -68.455605 -4.130702 -0.383345 85.530792 -2.236049 4.147551 -37.252380 -1.390624 1.660109 
-0.394104 34.332821 -4.999566 19.951178 -0.009766 -0.019533 -5.400389 -0.009766 -0.009767 -17.988279 -0.019531 0.000000 -8.544920 -0.009766 -0.009767 34.492188 -0.009766 -0.019533 1.992188 -2.001953 0.000341 -88.971901 -7.941332 39.805954 -54.050800 -0.569622 8.617085 -21.187878 16.983114 -14.046280 -2.001953 1.992188 0.000000 74.032051 19.008038 43.461685 40.847023 0.599978 8.473203 16.197897 -16.472458 -16.707876 -67.764633 3.993131 0.334805 85.471802 2.177983 -4.216470 -37.867691 1.406946 -1.641430 -67.759933 -4.130425 -0.386486 85.452347 -2.235893 4.154719 -37.867783 -1.406027 1.630067 
